<svg xmlns="http://www.w3.org/2000/svg" width="1em" height="1em" viewBox="0 0 2048 2048"><path fill="white" d="M1408 592q-26 0-45-19t-19-45q0-51 19-98t56-83l79-80q38-38 38-91q0-26 19-45t45-19t45 19t19 45q0 51-19 98t-56 83l-79 80q-38 38-38 91q0 26-19 45t-45 19m-384 0q-26 0-45-19t-19-45q0-51 19-98t56-83l79-80q38-38 38-91q0-26 19-45t45-19t45 19t19 45q0 51-19 98t-56 83l-79 80q-38 38-38 91q0 26-19 45t-45 19m832 176q40 0 75 15t61 41t41 61t15 75v384q0 40-15 75t-41 61t-61 41t-75 15h-57q-2 7-3 13t-4 12v39q0 66-25 124t-69 102t-102 69t-124 25h-384q-78 0-144-35t-110-93H334q-66 0-124-25t-102-68t-69-102t-25-125v-64h256q0-79 30-149t83-122t122-83t149-30q30 0 58 5t56 14V640h1024v128zM654 1152q-53 0-99 20t-82 55t-55 81t-20 100h370v-228q-26-13-54-20t-60-8m-320 512h441q-7-29-7-64v-64H153q10 28 28 51t41 41t52 26t60 10m463 67v1l1 2v-1zm867-131V768H896v832q0 40 15 75t41 61t61 41t75 15h384q40 0 75-15t61-41t41-61t15-75m256-256V960q0-26-19-45t-45-19h-64v512h64q26 0 45-19t19-45"/></svg>