<svg xmlns="http://www.w3.org/2000/svg" width="1em" height="1em" viewBox="0 0 24 24"><path fill="white" d="M6 14.346q-.846 0-1.423-.577T4 12.346V9.5q0-.213.144-.356T4.5 9h11.506q.028-.748.473-1.35t1.167-.838l3.733-1.264q.188-.067.371.03q.183.099.25.288t-.023.373t-.28.248L17.963 7.75q-.429.143-.696.517Q17 8.64 17 9.104v3.242q0 .833-.577 1.417q-.577.583-1.423.583zm4 5.154v-1.77q0-.268-.173-.441q-.173-.174-.442-.174H3.5q-.213 0-.356-.143T3 16.615t.144-.356t.356-.144h5.885q.666 0 1.14.475T11 17.73v1.77q0 .213-.144.356t-.357.144t-.356-.144T10 19.5m3 0v-1.77q0-.665.475-1.14t1.14-.475H20.5q.213 0 .356.144q.144.144.144.357t-.144.356t-.356.144h-5.884q-.27 0-.443.173q-.173.172-.173.442V19.5q0 .213-.144.356t-.357.144t-.356-.144T13 19.5"/></svg>