<svg xmlns="http://www.w3.org/2000/svg" width="1em" height="1em" viewBox="0 0 24 24"><path fill="white" d="M22.1 12h-.01c0-5.56-4.53-10.09-10.09-10.09c-5.54 0-10.05 4.49-10.09 10.03c0 .02-.01.04-.01.06c0 5.56 4.53 10.09 10.09 10.09c5.47 0 9.92-4.38 10.07-9.81c.01-.09.04-.18.04-.28m-10.11 9.09c-5.01 0-9.09-4.08-9.09-9.09v-.06c.04-2.34 1.95-4.23 4.29-4.23c2.36 0 4.29 1.92 4.29 4.29h.02c0 2.92 2.38 5.3 5.3 5.3c1.25 0 2.38-.45 3.28-1.17c-1.51 2.94-4.56 4.96-8.09 4.96m-71.38-5.34a.49.49 0 0 0-.57-.09c-1.05.52-2.16.78-3.3.78c-4.14 0-7.5-3.37-7.5-7.5c0-2.38 1.1-4.57 3.03-6.01c.17-.12.19-.34.13-.54s-.29-.35-.49-.36c-.05 0-.11-.01-.16-.01c-5.5 0-9.98 4.48-9.98 9.98s4.48 9.98 9.98 9.98c3.79 0 7.31-2.21 8.97-5.64a.55.55 0 0 0-.11-.59M-90.24 1.89c-5.56 0-10.09 4.53-10.09 10.09s4.53 10.09 10.09 10.09s10.09-4.53 10.09-10.09s-4.53-10.09-10.09-10.09m5.74 15.51h-11.31c-.33 0-.6-.27-.6-.6s.27-.6.6-.6h11.31c.33 0 .6.27.6.6s-.27.6-.6.6m0-2.4h-11.31c-.33 0-.6-.27-.6-.6s.27-.6.6-.6h11.31c.33 0 .6.27.6.6s-.27.6-.6.6m0-2.4h-11.31c-.33 0-.6-.27-.6-.6s.27-.6.6-.6h11.31c.33 0 .6.27.6.6s-.27.6-.6.6m0-2.4h-11.31c-.33 0-.6-.27-.6-.6s.27-.6.6-.6h11.31c.33 0 .6.27.6.6s-.27.6-.6.6m0-2.4h-11.31c-.33 0-.6-.27-.6-.6s.27-.6.6-.6h11.31c.33 0 .6.27.6.6s-.27.6-.6.6m21.82-2.72l.92-1.76c.02-.04.02-.09-.01-.13s-.08-.06-.12-.05l-1.96.34l-1.39-1.42c-.03-.03-.08-.05-.13-.03c-.05.01-.08.05-.08.1l-.28 1.96l-1.78.88c-.04.02-.07.06-.07.11s.03.09.07.11l1.78.88l.29 1.96c.01.05.04.09.08.1c.01 0 .03.01.04.01c.03 0 .07-.01.09-.04l1.38-1.42l1.96.33c.05.01.09-.01.12-.05s.03-.09.01-.13zm3.2 4.52l.56-1.06c.02-.04.02-.09-.01-.13s-.07-.06-.12-.05l-1.18.2l-.83-.85c-.03-.03-.08-.05-.13-.03c-.05.01-.08.05-.08.1l-.17 1.18l-1.07.53c-.04.02-.07.06-.07.11s.03.09.07.11l1.07.53l.17 1.18c.01.05.04.09.08.1c.01 0 .03.01.04.01c.03 0 .07-.01.09-.04l.83-.86l1.18.2c.05.01.09-.01.12-.05s.03-.09.01-.13zm-4.66 2.77l.56-1.06c.02-.04.02-.09-.01-.13s-.07-.06-.12-.05l-1.18.2l-.83-.85c-.03-.03-.08-.05-.13-.03c-.05.01-.08.05-.08.1l-.17 1.18l-1.07.53c-.04.02-.07.06-.07.11s.03.09.07.11l1.07.53l.17 1.18c.01.05.04.09.08.1c.01 0 .03.01.04.01c.03 0 .07-.01.09-.04l.83-.86l1.18.2c.05.01.09-.01.12-.05s.03-.09.01-.13z"/></svg>